<svg width="85" height="87" viewBox="0 0 85 87" fill="none" xmlns="http://www.w3.org/2000/svg">
<g clip-path="url(#clip0_2668_4769)">
<mask id="mask0_2668_4769" style="mask-type:luminance" maskUnits="userSpaceOnUse" x="0" y="0" width="85" height="87">
<path d="M42.8462 0.631964C50.6545 2.52795 56.2905 8.91233 60.1777 15.5544C64.5376 23.0064 65.4058 31.5046 70.0315 38.8677C75.0186 46.8044 82.8207 53.6153 84.0474 62.8896C85.2679 72.118 78.8748 81.3832 70.1952 84.9113C55.1195 91.041 43.6218 80.3708 29.8438 76.8672C26.3584 75.9805 22.7123 75.7382 19.2948 74.6122C4.27465 69.6636 -1.86195 49.9951 1.98193 36.1157C3.09739 32.0875 4.85247 28.2005 6.89183 24.4944C11.8079 15.5575 17.8456 6.98873 26.6396 2.81327C30.6441 0.911147 34.4293 0.052124 37.9487 0.052124C39.6451 0.052124 41.2766 0.25154 42.8432 0.631964" fill="white"/>
</mask>
<g mask="url(#mask0_2668_4769)">
<mask id="mask1_2668_4769" style="mask-type:luminance" maskUnits="userSpaceOnUse" x="0" y="0" width="85" height="87">
<path d="M42.8372 0.631964C50.6455 2.52795 56.2815 8.91233 60.1686 15.5544C64.5285 23.0064 65.3968 31.5046 70.0224 38.8677C75.0096 46.8044 82.8116 53.6153 84.0383 62.8896C85.2589 72.118 78.8658 81.3832 70.1862 84.9113C55.1104 91.041 43.6128 80.3708 29.8348 76.8672C26.3494 75.9805 22.7032 75.7382 19.2858 74.6122C4.26562 69.6636 -1.87098 49.9951 1.97289 36.1157C3.08836 32.0875 4.84344 28.2005 6.88279 24.4944C11.7989 15.5575 17.8366 6.98873 26.6305 2.81327C30.6351 0.911147 34.4202 0.052124 37.9397 0.052124C39.6361 0.052124 41.2675 0.25154 42.8341 0.631964" fill="white"/>
</mask>
<g mask="url(#mask1_2668_4769)">
<path d="M99.9695 -5.6604H-12.405V110.068H99.9695V-5.6604Z" fill="#8ED479"/>
<path d="M72.1298 103.021L17.4597 94.0937C17.4597 84.2701 18.7235 76.134 33.5922 74.4312L34.4481 58.8001C33.206 56.2016 32.3223 53.0876 31.9453 49.4613C30.8329 38.6867 33.308 31.8023 43.6994 30.7438C53.3801 29.759 58.1695 34.772 61.1112 44.0617C61.5592 45.2153 63.7654 51.0812 63.2185 52.3697C62.6716 53.6552 60.8176 54.5081 59.2696 54.7136C58.7597 63.1198 55.4782 67.872 49.6043 68.4703C49.4992 68.4795 49.391 68.4856 49.286 68.4948L49.7155 77.7876C62.1772 82.6503 72.1268 93.2009 72.1268 103.024" fill="#103540"/>
<path d="M47.6421 46.5804C46.6718 46.6479 45.6861 46.7737 44.8055 47.1879C43.3347 47.8812 42.59 49.5563 41.7001 50.8234C41.4838 51.1332 41.249 51.4093 40.9987 51.664C38.638 54.057 34.4975 52.6181 34.1483 49.2894C34.1483 49.271 34.1452 49.2557 34.1422 49.2372C33.5922 43.9144 34.0186 40.0825 35.443 37.5177C36.9416 34.821 39.6361 33.3607 43.9249 32.925C44.6479 32.8514 45.3524 32.8146 46.0137 32.8146C49.3724 32.8146 52.0112 33.7687 54.0815 35.7322C55.0363 36.6403 55.9045 37.7877 56.6925 39.1897C57.4031 40.4537 57.3939 42.0061 56.6276 43.2333C56.263 43.8193 55.7933 44.3592 55.2031 44.8409" fill="#FFCCCC"/>
</g>
<path d="M32.2693 28.5164C36.638 28.5164 40.1796 25.0001 40.1796 20.6625C40.1796 16.3249 36.638 12.8086 32.2693 12.8086C27.9007 12.8086 24.3591 16.3249 24.3591 20.6625C24.3591 25.0001 27.9007 28.5164 32.2693 28.5164Z" fill="#FFEDCC"/>
<path d="M36.3328 37.0975H29.7976C28.1352 37.0975 26.788 35.7599 26.788 34.1094C26.788 30.2652 23.6487 27.1451 19.7739 27.1451C19.7739 27.1451 -7.58127 27.1635 -7.89026 27.1635C-16.9345 27.1635 -24.2638 34.4438 -24.2638 43.4205C-24.2638 44.93 -25.4967 46.1541 -27.0169 46.1541H-31.0895C-36.123 46.1541 -40.2017 50.2038 -40.2017 55.2014C-40.2017 57.6742 -38.1839 59.6776 -35.6935 59.6776H-4.16999L-4.16072 59.6223H13.73C15.5129 59.6223 16.959 58.1865 16.959 56.4163C16.959 53.5202 14.5952 51.1732 11.6783 51.1732H0.00759888C-1.07388 51.1732 -1.95142 50.3019 -1.95142 49.2282C-1.95142 47.191 -0.289036 45.5405 1.76268 45.5405H38.9902C40.5691 45.5405 41.8916 44.2949 41.9163 42.7272C41.9658 39.6255 39.4475 37.0945 36.3359 37.0945L36.3328 37.0975Z" fill="#D2F1F9"/>
</g>
</g>
<defs>
<clipPath id="clip0_2668_4769">
<rect width="85" height="87" fill="white"/>
</clipPath>
</defs>
</svg>
